<svg width="55" height="55" viewBox="0 0 55 55" fill="none" xmlns="http://www.w3.org/2000/svg">
<path d="M27.5002 38.3887C33.5139 38.3887 38.3891 33.5135 38.3891 27.4998C38.3891 21.4861 33.5139 16.611 27.5002 16.611C21.4864 16.611 16.6113 21.4861 16.6113 27.4998C16.6113 33.5135 21.4864 38.3887 27.5002 38.3887Z" stroke="#090A0A" stroke-width="5" stroke-linecap="round" stroke-linejoin="round"/>
<path d="M3 38.3889V16.6111C3 9.09391 9.09391 3 16.6111 3H38.3889C45.906 3 52 9.09391 52 16.6111V38.3889C52 45.906 45.906 52 38.3889 52H16.6111C9.09391 52 3 45.906 3 38.3889Z" stroke="#090A0A" stroke-width="5"/>
<path d="M42.4722 12.557L42.5006 12.5249" stroke="#090A0A" stroke-width="5" stroke-linecap="round" stroke-linejoin="round"/>
</svg>
