<svg width="59" height="58" viewBox="0 0 59 58" fill="none" xmlns="http://www.w3.org/2000/svg">
<g id="insta">
<circle id="Ellipse 3" cx="29.7273" cy="29" r="29" fill="#090A0A"/>
<g id="&#240;&#159;&#166;&#134; icon &#34;instagram&#34;">
<path id="Vector" d="M29.9073 36.0298C33.834 36.0298 37.0174 32.8822 37.0174 28.9995C37.0174 25.1168 33.834 21.9692 29.9073 21.9692C25.9804 21.9692 22.7971 25.1168 22.7971 28.9995C22.7971 32.8822 25.9804 36.0298 29.9073 36.0298Z" stroke="#F5FD53" stroke-width="3" stroke-linecap="round" stroke-linejoin="round"/>
<path id="Vector_2" d="M13.9091 36.0301V21.9695C13.9091 17.1161 17.8883 13.1816 22.7969 13.1816H37.0172C41.9258 13.1816 45.905 17.1161 45.905 21.9695V36.0301C45.905 40.8835 41.9258 44.818 37.0172 44.818H22.7969C17.8883 44.818 13.9091 40.8835 13.9091 36.0301Z" stroke="#F5FD53" stroke-width="3"/>
<path id="Vector_3" d="M39.6836 19.3517L39.7024 19.3311" stroke="#F5FD53" stroke-width="3" stroke-linecap="round" stroke-linejoin="round"/>
</g>
</g>
</svg>
