<svg width="58" height="58" viewBox="0 0 58 58" fill="none" xmlns="http://www.w3.org/2000/svg">
<g id="mobil">
<circle id="Ellipse 4" cx="29" cy="29" r="29" fill="#090A0A"/>
<g id="&#240;&#159;&#166;&#134; icon &#34;phone&#34;">
<path id="Vector" d="M19.2362 11.8635C18.7837 11.8635 18.4545 12.1927 18.4545 12.6452V44.0364C18.4545 44.4889 18.7837 44.8181 19.2362 44.8181H38.2849C38.7374 44.8181 39.0665 44.4889 39.0665 44.0364V12.6452C39.0665 12.1927 38.7374 11.8635 38.2849 11.8635L19.2362 11.8635ZM22.5687 15.9777H34.9112V36.5486H22.5687V15.9777ZM28.74 38.6057C29.8919 38.6057 30.7971 39.5108 30.7971 40.6628C30.7971 41.8147 29.8919 42.7198 28.74 42.7198C27.588 42.7198 26.6829 41.8147 26.6829 40.6628C26.6829 39.5108 27.588 38.6057 28.74 38.6057Z" fill="#F5FD53"/>
</g>
</g>
</svg>
